<?xml version="1.0" encoding="utf-8"?>
<!-- Generator: Adobe Illustrator 28.1.0, SVG Export Plug-In . SVG Version: 6.00 Build 0)  -->
<svg version="1.1" id="Layer_1" xmlns="http://www.w3.org/2000/svg" xmlns:xlink="http://www.w3.org/1999/xlink" x="0px" y="0px"
	 viewBox="0 0 128 128" style="enable-background:new 0 0 128 128;" xml:space="preserve">
<style type="text/css">
	.st0{fill:#215092;}
	.st1{fill:#A7DFF4;}
</style>
<path class="st0" d="M22.5,16.6c0.9-0.1,2,0,2.9,0c1.6,0,3.2,0,4.8,0h19.3h36.8h12.2c2.2,0,4.4-0.1,6.6,0c1.6,0.1,3.1,0.5,4.4,1.4
	c1.9,1.2,3.3,3.5,3.8,5.7c0.4,1.8,0.1,5.2,0.1,7.2V45v38.3v13c0,2.3,0.1,4.6,0,6.9c-0.1,1.6-0.4,3-1.3,4.3c-1.5,2.2-3.6,3.5-6.2,4
	c-6.5,0.2-13,0-19.5,0h-38H31.3H26c-1.1,0-2.3,0.1-3.4-0.1c-1.6-0.2-3.1-0.9-4.3-1.8c-1.8-1.4-3.3-3.5-3.6-5.8
	c-0.2-1.4-0.1-2.9-0.1-4.4v-6V72.7V41.1V30.4c0-1.9-0.1-4,0.1-5.9c0.2-1.7,0.6-3.1,1.7-4.5C17.9,18,20,16.9,22.5,16.6z"/>
<path class="st1" d="M103,20.3c0.5,0,1,0,1.6,0c1.4,0,2.8,0.4,3.8,1.5c0.1,0.1,0.1,0.1,0.2,0.2s0.1,0.2,0.2,0.2
	c0.1,0.1,0.1,0.2,0.2,0.3c0.1,0.1,0.1,0.2,0.2,0.3c0,0.1,0.1,0.2,0.1,0.3c0,0.1,0.1,0.2,0.1,0.3c0,0.1,0.1,0.2,0.1,0.3
	c0,0.1,0.1,0.2,0.1,0.3c0.3,1.4,0.1,3.1,0.1,4.5v7.1L25.6,36h-6.8c0-2.2,0.1-4.4,0-6.6c0-1.6-0.2-3.6,0.2-5.2
	c0.1-0.2,0.1-0.4,0.2-0.7c0.1-0.2,0.2-0.4,0.3-0.7c0.1-0.2,0.2-0.4,0.4-0.5c0.1-0.2,0.3-0.3,0.4-0.5c0.7-0.8,1.7-1.3,2.7-1.4
	c1.1-0.1,2.2-0.1,3.3-0.1h5.6c4.7,0,9.5,0,14.2,0L103,20.3z"/>
<path class="st1" d="M18.7,42.5c2.9-0.1,5.9,0,8.9,0h17.5h43.8c-1,1-65.2,62.6-67.6,64.7c-0.5-0.3-0.9-0.6-1.2-1
	c-0.7-0.7-1.2-1.5-1.3-2.5c-0.3-2.1-0.1-5.2-0.1-7.4V82.6V57.1C18.6,52.3,18.6,47.3,18.7,42.5z"/>
<path class="st1" d="M104.3,42.5c1.7-0.1,3.5,0,5.2,0l0.1,58.4c0,1.9,0.3,4.1-1.2,5.5c-0.7,0.7-1.5,1.1-2.5,1.2c-2,0.2-4.7,0-6.8,0
	H83.8H36.2c0.7-0.8,1.6-1.5,2.4-2.3c1.6-1.4,3.1-2.9,4.6-4.5c1.7-1.6,55.7-53.2,55.7-53.2C100.6,45.9,102.4,44.1,104.3,42.5z"/>
<circle class="st0" cx="30.9" cy="28.2" r="5.3"/>
<circle class="st0" cx="45.5" cy="28.2" r="5.3"/>
<circle class="st0" cx="60.2" cy="28.2" r="5.3"/>
</svg>
